<mxfile host="app.diagrams.net" modified="2023-11-27T08:04:46.806Z" agent="Mozilla/5.0 (Windows NT 10.0; Win64; x64) AppleWebKit/537.36 (KHTML, like Gecko) Chrome/119.0.0.0 Safari/537.36 Edg/119.0.0.0" etag="rQ167UT2pSoxWv_7kbcQ" version="22.1.4" type="github">
  <diagram id="C5RBs43oDa-KdzZeNtuy" name="Page-1">
    <mxGraphModel dx="2869" dy="2153" grid="1" gridSize="10" guides="1" tooltips="1" connect="1" arrows="1" fold="1" page="1" pageScale="1" pageWidth="827" pageHeight="1169" math="0" shadow="0">
      <root>
        <mxCell id="WIyWlLk6GJQsqaUBKTNV-0" />
        <mxCell id="WIyWlLk6GJQsqaUBKTNV-1" parent="WIyWlLk6GJQsqaUBKTNV-0" />
        <mxCell id="mlWC-4MO3xB025fDgNTy-63" value="" style="rounded=0;whiteSpace=wrap;html=1;fillColor=#ffe6cc;strokeColor=#d79b00;" vertex="1" parent="WIyWlLk6GJQsqaUBKTNV-1">
          <mxGeometry x="379" y="-120" width="581" height="790" as="geometry" />
        </mxCell>
        <mxCell id="mlWC-4MO3xB025fDgNTy-62" value="" style="rounded=0;whiteSpace=wrap;html=1;fillColor=#ffe6cc;strokeColor=#d79b00;" vertex="1" parent="WIyWlLk6GJQsqaUBKTNV-1">
          <mxGeometry x="-530" y="-120" width="587" height="790" as="geometry" />
        </mxCell>
        <mxCell id="mlWC-4MO3xB025fDgNTy-59" value="" style="rounded=0;whiteSpace=wrap;html=1;fillColor=#d5e8d4;strokeColor=#82b366;" vertex="1" parent="WIyWlLk6GJQsqaUBKTNV-1">
          <mxGeometry x="445" y="57" width="460" height="366" as="geometry" />
        </mxCell>
        <mxCell id="mlWC-4MO3xB025fDgNTy-55" value="" style="rounded=0;whiteSpace=wrap;html=1;fillColor=#d5e8d4;strokeColor=#82b366;" vertex="1" parent="WIyWlLk6GJQsqaUBKTNV-1">
          <mxGeometry x="-190" y="-20" width="190" height="280" as="geometry" />
        </mxCell>
        <mxCell id="mlWC-4MO3xB025fDgNTy-54" value="" style="whiteSpace=wrap;html=1;fillColor=#d5e8d4;strokeColor=#82b366;" vertex="1" parent="WIyWlLk6GJQsqaUBKTNV-1">
          <mxGeometry x="-450" y="327" width="450" height="320" as="geometry" />
        </mxCell>
        <mxCell id="mlWC-4MO3xB025fDgNTy-7" style="edgeStyle=orthogonalEdgeStyle;rounded=0;orthogonalLoop=1;jettySize=auto;html=1;exitX=0.996;exitY=0.133;exitDx=0;exitDy=0;exitPerimeter=0;entryX=-0.004;entryY=0.142;entryDx=0;entryDy=0;entryPerimeter=0;" edge="1" parent="WIyWlLk6GJQsqaUBKTNV-1" target="mlWC-4MO3xB025fDgNTy-6">
          <mxGeometry relative="1" as="geometry">
            <mxPoint x="209.27999999999997" y="169.95000000000005" as="sourcePoint" />
          </mxGeometry>
        </mxCell>
        <mxCell id="mlWC-4MO3xB025fDgNTy-8" value="异步消息到转发到主LDD" style="edgeLabel;html=1;align=left;verticalAlign=middle;resizable=0;points=[];" vertex="1" connectable="0" parent="mlWC-4MO3xB025fDgNTy-7">
          <mxGeometry x="-0.0381" y="-3" relative="1" as="geometry">
            <mxPoint x="-66" y="-3" as="offset" />
          </mxGeometry>
        </mxCell>
        <mxCell id="mlWC-4MO3xB025fDgNTy-9" style="edgeStyle=orthogonalEdgeStyle;rounded=0;orthogonalLoop=1;jettySize=auto;html=1;exitX=-0.002;exitY=0.818;exitDx=0;exitDy=0;entryX=0.989;entryY=0.813;entryDx=0;entryDy=0;entryPerimeter=0;exitPerimeter=0;" edge="1" parent="WIyWlLk6GJQsqaUBKTNV-1" source="mlWC-4MO3xB025fDgNTy-6">
          <mxGeometry relative="1" as="geometry">
            <mxPoint x="208.01999999999998" y="271.95000000000005" as="targetPoint" />
            <Array as="points" />
          </mxGeometry>
        </mxCell>
        <mxCell id="mlWC-4MO3xB025fDgNTy-46" value="" style="edgeStyle=orthogonalEdgeStyle;rounded=0;orthogonalLoop=1;jettySize=auto;html=1;entryX=0.476;entryY=0.026;entryDx=0;entryDy=0;entryPerimeter=0;" edge="1" parent="WIyWlLk6GJQsqaUBKTNV-1" target="mlWC-4MO3xB025fDgNTy-45">
          <mxGeometry relative="1" as="geometry">
            <mxPoint x="-103" y="110" as="sourcePoint" />
            <mxPoint x="-100" y="190" as="targetPoint" />
          </mxGeometry>
        </mxCell>
        <mxCell id="mlWC-4MO3xB025fDgNTy-10" value="ddpRead" style="rounded=0;whiteSpace=wrap;html=1;" vertex="1" parent="WIyWlLk6GJQsqaUBKTNV-1">
          <mxGeometry x="-176" y="49" width="150" height="60" as="geometry" />
        </mxCell>
        <mxCell id="mlWC-4MO3xB025fDgNTy-16" style="edgeStyle=orthogonalEdgeStyle;rounded=0;orthogonalLoop=1;jettySize=auto;html=1;entryX=0.5;entryY=0;entryDx=0;entryDy=0;" edge="1" parent="WIyWlLk6GJQsqaUBKTNV-1" source="mlWC-4MO3xB025fDgNTy-11" target="mlWC-4MO3xB025fDgNTy-12">
          <mxGeometry relative="1" as="geometry" />
        </mxCell>
        <mxCell id="mlWC-4MO3xB025fDgNTy-11" value="ddpReadLocalQueryVba" style="rounded=0;whiteSpace=wrap;html=1;" vertex="1" parent="WIyWlLk6GJQsqaUBKTNV-1">
          <mxGeometry x="719" y="166" width="170" height="60" as="geometry" />
        </mxCell>
        <mxCell id="mlWC-4MO3xB025fDgNTy-12" value="ddpReadLocalQueryVbaInfo" style="rounded=0;whiteSpace=wrap;html=1;" vertex="1" parent="WIyWlLk6GJQsqaUBKTNV-1">
          <mxGeometry x="719" y="276" width="170" height="60" as="geometry" />
        </mxCell>
        <mxCell id="mlWC-4MO3xB025fDgNTy-31" style="edgeStyle=orthogonalEdgeStyle;rounded=0;orthogonalLoop=1;jettySize=auto;html=1;entryX=0.5;entryY=0;entryDx=0;entryDy=0;" edge="1" parent="WIyWlLk6GJQsqaUBKTNV-1" source="mlWC-4MO3xB025fDgNTy-21" target="mlWC-4MO3xB025fDgNTy-25">
          <mxGeometry relative="1" as="geometry" />
        </mxCell>
        <mxCell id="mlWC-4MO3xB025fDgNTy-21" value="ddpDoReadLocal" style="rounded=0;whiteSpace=wrap;html=1;" vertex="1" parent="WIyWlLk6GJQsqaUBKTNV-1">
          <mxGeometry x="484" y="224" width="170" height="60" as="geometry" />
        </mxCell>
        <mxCell id="mlWC-4MO3xB025fDgNTy-24" value="" style="edgeStyle=orthogonalEdgeStyle;rounded=0;orthogonalLoop=1;jettySize=auto;html=1;" edge="1" parent="WIyWlLk6GJQsqaUBKTNV-1" source="mlWC-4MO3xB025fDgNTy-23" target="mlWC-4MO3xB025fDgNTy-21">
          <mxGeometry relative="1" as="geometry" />
        </mxCell>
        <mxCell id="mlWC-4MO3xB025fDgNTy-23" value="ddpTransReadLocal" style="rounded=0;whiteSpace=wrap;html=1;" vertex="1" parent="WIyWlLk6GJQsqaUBKTNV-1">
          <mxGeometry x="484" y="127" width="170" height="60" as="geometry" />
        </mxCell>
        <mxCell id="mlWC-4MO3xB025fDgNTy-25" value="ddpReadLocalDone&lt;br&gt;(主要唤醒信号量)" style="rounded=0;whiteSpace=wrap;html=1;" vertex="1" parent="WIyWlLk6GJQsqaUBKTNV-1">
          <mxGeometry x="484" y="347" width="170" height="60" as="geometry" />
        </mxCell>
        <mxCell id="mlWC-4MO3xB025fDgNTy-36" style="edgeStyle=orthogonalEdgeStyle;rounded=0;orthogonalLoop=1;jettySize=auto;html=1;entryX=0.5;entryY=0;entryDx=0;entryDy=0;" edge="1" parent="WIyWlLk6GJQsqaUBKTNV-1" source="mlWC-4MO3xB025fDgNTy-29" target="mlWC-4MO3xB025fDgNTy-30">
          <mxGeometry relative="1" as="geometry" />
        </mxCell>
        <mxCell id="mlWC-4MO3xB025fDgNTy-29" value="ddpTransReadAgent" style="rounded=0;whiteSpace=wrap;html=1;" vertex="1" parent="WIyWlLk6GJQsqaUBKTNV-1">
          <mxGeometry x="-176" y="342" width="150" height="60" as="geometry" />
        </mxCell>
        <mxCell id="mlWC-4MO3xB025fDgNTy-37" style="edgeStyle=orthogonalEdgeStyle;rounded=0;orthogonalLoop=1;jettySize=auto;html=1;" edge="1" parent="WIyWlLk6GJQsqaUBKTNV-1" source="mlWC-4MO3xB025fDgNTy-30" target="mlWC-4MO3xB025fDgNTy-35">
          <mxGeometry relative="1" as="geometry" />
        </mxCell>
        <mxCell id="mlWC-4MO3xB025fDgNTy-30" value="ddpDoReadAgent" style="rounded=0;whiteSpace=wrap;html=1;" vertex="1" parent="WIyWlLk6GJQsqaUBKTNV-1">
          <mxGeometry x="-176" y="457" width="150" height="60" as="geometry" />
        </mxCell>
        <mxCell id="mlWC-4MO3xB025fDgNTy-33" value="" style="strokeWidth=2;html=1;shape=mxgraph.flowchart.annotation_2;align=left;labelPosition=right;pointerEvents=1;dashed=1;" vertex="1" parent="WIyWlLk6GJQsqaUBKTNV-1">
          <mxGeometry x="654" y="188" width="60" height="138" as="geometry" />
        </mxCell>
        <mxCell id="mlWC-4MO3xB025fDgNTy-35" value="ddpReadAgentDone" style="rounded=0;whiteSpace=wrap;html=1;" vertex="1" parent="WIyWlLk6GJQsqaUBKTNV-1">
          <mxGeometry x="-176" y="572" width="150" height="60" as="geometry" />
        </mxCell>
        <mxCell id="mlWC-4MO3xB025fDgNTy-39" value="" style="strokeWidth=2;html=1;shape=mxgraph.flowchart.annotation_2;align=left;labelPosition=right;pointerEvents=1;flipV=0;flipH=1;dashed=1;" vertex="1" parent="WIyWlLk6GJQsqaUBKTNV-1">
          <mxGeometry x="-239" y="422.5" width="63" height="129" as="geometry" />
        </mxCell>
        <mxCell id="mlWC-4MO3xB025fDgNTy-40" value="ddpReadAgentVerifyCheckSum" style="rounded=0;whiteSpace=wrap;html=1;" vertex="1" parent="WIyWlLk6GJQsqaUBKTNV-1">
          <mxGeometry x="-418" y="512" width="180" height="60" as="geometry" />
        </mxCell>
        <mxCell id="mlWC-4MO3xB025fDgNTy-42" style="edgeStyle=orthogonalEdgeStyle;rounded=0;orthogonalLoop=1;jettySize=auto;html=1;entryX=0.5;entryY=0;entryDx=0;entryDy=0;" edge="1" parent="WIyWlLk6GJQsqaUBKTNV-1" source="mlWC-4MO3xB025fDgNTy-41" target="mlWC-4MO3xB025fDgNTy-40">
          <mxGeometry relative="1" as="geometry" />
        </mxCell>
        <mxCell id="mlWC-4MO3xB025fDgNTy-41" value="ddpReadAgentReadData" style="rounded=0;whiteSpace=wrap;html=1;" vertex="1" parent="WIyWlLk6GJQsqaUBKTNV-1">
          <mxGeometry x="-419" y="397" width="180" height="60" as="geometry" />
        </mxCell>
        <mxCell id="mlWC-4MO3xB025fDgNTy-45" value="阻塞等待信号量唤醒，然后将数据返回给调用方" style="rounded=0;whiteSpace=wrap;html=1;align=left;" vertex="1" parent="WIyWlLk6GJQsqaUBKTNV-1">
          <mxGeometry x="-172" y="184" width="146" height="60" as="geometry" />
        </mxCell>
        <mxCell id="mlWC-4MO3xB025fDgNTy-50" style="edgeStyle=orthogonalEdgeStyle;rounded=0;orthogonalLoop=1;jettySize=auto;html=1;entryX=0;entryY=0.5;entryDx=0;entryDy=0;" edge="1" parent="WIyWlLk6GJQsqaUBKTNV-1" target="mlWC-4MO3xB025fDgNTy-23">
          <mxGeometry relative="1" as="geometry">
            <mxPoint x="339.99999999999955" y="156.99999999999955" as="sourcePoint" />
            <Array as="points">
              <mxPoint x="360" y="157" />
              <mxPoint x="360" y="157" />
            </Array>
          </mxGeometry>
        </mxCell>
        <mxCell id="mlWC-4MO3xB025fDgNTy-52" style="edgeStyle=orthogonalEdgeStyle;rounded=0;orthogonalLoop=1;jettySize=auto;html=1;entryX=1;entryY=0.5;entryDx=0;entryDy=0;" edge="1" parent="WIyWlLk6GJQsqaUBKTNV-1" target="mlWC-4MO3xB025fDgNTy-29">
          <mxGeometry relative="1" as="geometry">
            <mxPoint x="110" y="372" as="sourcePoint" />
          </mxGeometry>
        </mxCell>
        <mxCell id="mlWC-4MO3xB025fDgNTy-48" value="&lt;div style=&quot;text-align: justify;&quot;&gt;&lt;span style=&quot;background-color: initial;&quot;&gt;1、ddpReadQueryEncode&lt;/span&gt;&lt;/div&gt;&lt;div style=&quot;text-align: justify;&quot;&gt;&lt;span style=&quot;background-color: initial;&quot;&gt;2、ddpReadQueryDecode&lt;/span&gt;&lt;/div&gt;&lt;div style=&quot;text-align: justify;&quot;&gt;&lt;span style=&quot;background-color: initial;&quot;&gt;3、ddpReadQueryAckEncod&lt;/span&gt;&lt;/div&gt;&lt;div style=&quot;text-align: justify;&quot;&gt;&lt;span style=&quot;background-color: initial;&quot;&gt;4、ddpReadQueryAckDecode&lt;/span&gt;&lt;/div&gt;&lt;div style=&quot;text-align: justify;&quot;&gt;&lt;span style=&quot;background-color: initial;&quot;&gt;5、ddpReadQueryCallback&lt;/span&gt;&lt;/div&gt;" style="whiteSpace=wrap;html=1;fillColor=#dae8fc;strokeColor=#6c8ebf;align=center;" vertex="1" parent="WIyWlLk6GJQsqaUBKTNV-1">
          <mxGeometry x="100" y="10" width="240" height="550" as="geometry" />
        </mxCell>
        <mxCell id="mlWC-4MO3xB025fDgNTy-49" style="edgeStyle=orthogonalEdgeStyle;rounded=0;orthogonalLoop=1;jettySize=auto;html=1;" edge="1" parent="WIyWlLk6GJQsqaUBKTNV-1" source="mlWC-4MO3xB025fDgNTy-10">
          <mxGeometry relative="1" as="geometry">
            <mxPoint x="100" y="79" as="targetPoint" />
          </mxGeometry>
        </mxCell>
        <mxCell id="mlWC-4MO3xB025fDgNTy-51" style="edgeStyle=orthogonalEdgeStyle;rounded=0;orthogonalLoop=1;jettySize=auto;html=1;" edge="1" parent="WIyWlLk6GJQsqaUBKTNV-1" source="mlWC-4MO3xB025fDgNTy-25">
          <mxGeometry relative="1" as="geometry">
            <mxPoint x="340" y="377" as="targetPoint" />
          </mxGeometry>
        </mxCell>
        <mxCell id="mlWC-4MO3xB025fDgNTy-57" value="代理LDD读数据" style="text;strokeColor=none;fillColor=none;html=1;fontSize=24;fontStyle=1;verticalAlign=middle;align=center;" vertex="1" parent="WIyWlLk6GJQsqaUBKTNV-1">
          <mxGeometry x="-378" y="336" width="100" height="40" as="geometry" />
        </mxCell>
        <mxCell id="mlWC-4MO3xB025fDgNTy-58" value="接入LCS" style="text;strokeColor=none;fillColor=none;html=1;fontSize=24;fontStyle=1;verticalAlign=middle;align=center;" vertex="1" parent="WIyWlLk6GJQsqaUBKTNV-1">
          <mxGeometry x="-145" y="-10" width="100" height="40" as="geometry" />
        </mxCell>
        <mxCell id="mlWC-4MO3xB025fDgNTy-60" value="主LDD读元数据" style="text;strokeColor=none;fillColor=none;html=1;fontSize=24;fontStyle=1;verticalAlign=middle;align=center;" vertex="1" parent="WIyWlLk6GJQsqaUBKTNV-1">
          <mxGeometry x="664" y="67" width="100" height="40" as="geometry" />
        </mxCell>
        <mxCell id="mlWC-4MO3xB025fDgNTy-61" value="消息模块" style="text;strokeColor=none;fillColor=none;html=1;fontSize=24;fontStyle=1;verticalAlign=middle;align=center;" vertex="1" parent="WIyWlLk6GJQsqaUBKTNV-1">
          <mxGeometry x="160" y="130" width="100" height="40" as="geometry" />
        </mxCell>
        <mxCell id="mlWC-4MO3xB025fDgNTy-64" value="控制器B" style="text;strokeColor=none;fillColor=none;html=1;fontSize=24;fontStyle=1;verticalAlign=middle;align=center;" vertex="1" parent="WIyWlLk6GJQsqaUBKTNV-1">
          <mxGeometry x="634" y="-90" width="100" height="40" as="geometry" />
        </mxCell>
        <mxCell id="mlWC-4MO3xB025fDgNTy-65" value="控制A" style="text;strokeColor=none;fillColor=none;html=1;fontSize=24;fontStyle=1;verticalAlign=middle;align=center;" vertex="1" parent="WIyWlLk6GJQsqaUBKTNV-1">
          <mxGeometry x="-298" y="-90" width="100" height="40" as="geometry" />
        </mxCell>
      </root>
    </mxGraphModel>
  </diagram>
</mxfile>
